<svg xmlns="http://www.w3.org/2000/svg" fill="none" viewBox="0 0 144 30">
  <path fill="#292929" d="M12.8231 26.9286C19.9051 26.9286 25.6463 20.9004 25.6463 13.4643C25.6463 6.02817 19.9051 0 12.8231 0C5.74111 0 0 6.02817 0 13.4643C0 20.9004 5.74111 26.9286 12.8231 26.9286Z"/>
  <path fill="#F0761D" d="M12.5406 8.07534L14.0756 8.06187L14.1686 19.7371L12.7797 19.7493L12.7105 11.0516L9.12493 19.7813L8.10158 19.7903L4.45066 11.1241L4.51988 19.8217L3.05796 19.8346L2.96505 8.15935L4.50006 8.14588L8.59767 17.8269L12.5406 8.07534ZM16.4872 7.96235L22.7004 7.90784L22.7103 9.16156L17.9591 9.20324L17.9909 13.1995L21.865 13.1655L21.875 14.4192L18.0009 14.4532L18.0426 19.7031L16.5807 19.7159L16.4872 7.96235Z"/>
  <path fill="#F0761D" d="M45.281 6.93884H47.4147V23.1013H45.4334V10.9395L40.2517 23.1013H38.88L33.6983 10.9395V23.1013H31.5646V6.93884H33.8507L39.4897 20.3809L45.281 6.93884ZM56.2541 23.4214C55.1365 23.4214 54.1205 23.1547 53.206 22.6212C52.19 21.9811 51.428 21.181 50.92 20.2209C50.412 19.154 50.158 17.9805 50.158 16.7003C50.158 15.4201 50.412 14.2466 50.92 13.1798C51.5296 12.2197 52.2916 11.4729 53.206 10.9395C54.1205 10.2994 55.1873 9.97931 56.4065 9.97931C57.5242 9.97931 58.5402 10.2994 59.4546 10.9395C60.4706 11.4729 61.2327 12.2197 61.7407 13.1798C62.2487 14.1399 62.5027 15.3135 62.5027 16.7003C62.5027 17.9805 62.2487 19.154 61.7407 20.2209C61.1311 21.181 60.369 21.9811 59.4546 22.6212C58.5402 23.1547 57.4734 23.4214 56.2541 23.4214ZM56.2541 21.5011C56.9653 21.5011 57.6766 21.3411 58.3878 21.021C58.9974 20.5943 59.5054 20.0075 59.9118 19.2607C60.3182 18.6206 60.5214 17.7672 60.5214 16.7003C60.5214 15.6335 60.3182 14.7267 59.9118 13.9799C59.5054 13.3398 58.9974 12.8064 58.3878 12.3797C57.7782 12.0596 57.1178 11.8996 56.4065 11.8996C55.5937 11.8996 54.8825 12.0596 54.2729 12.3797C53.6633 12.8064 53.1552 13.3398 52.7488 13.9799C52.444 14.7267 52.2916 15.6335 52.2916 16.7003C52.2916 17.7672 52.444 18.674 52.7488 19.4208C53.1552 20.0609 53.6633 20.5943 54.2729 21.021C54.8825 21.3411 55.5429 21.5011 56.2541 21.5011ZM65.246 5.81867H67.3796V23.1013H65.246V5.81867ZM70.7325 5.81867H72.8662V23.1013H70.7325V5.81867ZM84.7537 10.2994H86.8874L79.4196 29.1823H77.4383L79.8768 23.1013L74.8475 10.2994H77.1335L80.9436 20.701L84.7537 10.2994ZM88.8686 6.77882H97.7081V8.53909H91.0023V13.9799H96.4889V15.7402H91.0023V23.1013H88.8686V6.77882ZM101.366 8.21904C100.959 8.21904 100.604 8.05902 100.299 7.73897C99.9942 7.41892 99.8418 7.09887 99.8418 6.77882C99.8418 6.35209 99.9942 5.9787 100.299 5.65865C100.604 5.3386 100.959 5.17857 101.366 5.17857C101.671 5.17857 101.975 5.3386 102.28 5.65865C102.483 5.9787 102.585 6.35209 102.585 6.77882L102.28 7.73897C101.975 8.05902 101.671 8.21904 101.366 8.21904ZM100.299 10.2994H102.28V23.1013H100.299V10.2994ZM105.786 5.81867H107.767V23.1013H105.786V5.81867ZM126.055 9.97931C126.97 9.97931 127.833 10.1927 128.646 10.6194C129.357 11.0461 129.916 11.6862 130.323 12.5397C130.831 13.3932 131.085 14.4067 131.085 15.5802V23.1013H128.951V15.9002C128.951 14.62 128.697 13.6065 128.189 12.8598C127.579 12.2197 126.716 11.8996 125.598 11.8996C124.582 11.8996 123.769 12.273 123.16 13.0198C122.55 13.6599 122.245 14.6734 122.245 16.0602V23.1013H120.112V15.9002C120.112 14.62 119.807 13.6065 119.197 12.8598C118.587 12.2197 117.775 11.8996 116.759 11.8996C115.743 11.8996 114.93 12.273 114.32 13.0198C113.609 13.6599 113.253 14.6734 113.253 16.0602V23.1013H111.272V10.2994H113.253V12.0596C113.66 11.4195 114.219 10.9395 114.93 10.6194C115.641 10.1927 116.403 9.97931 117.216 9.97931C118.232 9.97931 119.146 10.246 119.959 10.7794C120.772 11.2062 121.382 11.8996 121.788 12.8598C122.093 12.0063 122.652 11.3128 123.464 10.7794C124.176 10.246 125.039 9.97931 126.055 9.97931ZM138.705 23.4214C137.79 23.4214 136.978 23.2613 136.266 22.9413C135.454 22.5146 134.844 22.0345 134.438 21.5011C134.031 20.861 133.777 20.1675 133.676 19.4208H135.809C135.911 20.0609 136.216 20.5943 136.724 21.021C137.232 21.3411 137.892 21.5011 138.705 21.5011C139.518 21.5011 140.127 21.3411 140.534 21.021C141.042 20.701 141.296 20.2209 141.296 19.5808C141.296 19.0474 141.042 18.674 140.534 18.4606C140.026 18.1406 139.264 17.8739 138.248 17.6605L136.114 16.8604L134.59 15.7402C134.184 15.2068 133.98 14.5133 133.98 13.6599C133.98 13.0198 134.184 12.433 134.59 11.8996C134.895 11.2595 135.403 10.7794 136.114 10.4594C136.825 10.1393 137.587 9.97931 138.4 9.97931C139.822 9.97931 140.94 10.3527 141.753 11.0995C142.566 11.8463 143.023 12.8598 143.125 14.1399H141.143C141.042 13.3932 140.737 12.8598 140.229 12.5397C139.822 12.113 139.213 11.8996 138.4 11.8996C137.689 11.8996 137.13 12.0596 136.724 12.3797C136.216 12.6997 135.962 13.1265 135.962 13.6599C135.962 14.0866 136.114 14.46 136.419 14.78L137.333 15.4201L139.01 15.9002C139.924 16.1136 140.635 16.3803 141.143 16.7003C141.753 16.9137 142.261 17.2871 142.667 17.8205C143.074 18.2472 143.277 18.834 143.277 19.5808C143.277 20.3276 143.074 20.9677 142.667 21.5011C142.261 22.1412 141.753 22.6212 141.143 22.9413C140.432 23.2613 139.619 23.4214 138.705 23.4214Z"/>
</svg>